<svg transform="scale(1)" xmlns="http://www.w3.org/2000/svg" viewBox="0 0 100 100" class="show_show__wrapper__graphic__5Waiy "><title>React</title><defs><style>.cls-1{fill:#0099f5;}.cls-2{fill:#ffd44d;}.cls-3{fill:#13183f;opacity:0.15;}.cls-4{fill:#f0457d;}</style></defs><g id="_0607_Location_1" data-name="0607_Location_1"><path class="cls-1" d="M30.27,33.56,11.05,44.31a.88.88,0,0,0-.44.63L3.43,86.51a.9.9,0,0,0,.73,1,.92.92,0,0,0,.52-.06L27,77.39Z"></path><polygon class="cls-1" points="50.01 87.41 27.04 77.39 30.27 33.56 50.03 41.64 50.01 87.41"></polygon><polygon class="cls-1" points="72.67 77.16 50.01 87.41 50.03 41.64 69.71 33.56 72.67 77.16"></polygon><path class="cls-1" d="M95.33,87.47,72.67,77.15l-3-43.59L88.87,44.33a.92.92,0,0,1,.42.63L96.57,86.5a.9.9,0,0,1-.73,1A.88.88,0,0,1,95.33,87.47Z"></path><polygon class="cls-2" points="29.3 46.64 29.3 46.64 28.74 54.35 28.74 54.35 51.21 86.87 59 83.34 50.03 74.14 37.54 54.69 50.03 56.03 50.03 48.65 29.3 46.64"></polygon><polygon class="cls-2" points="87.39 43.5 78.32 38.4 70.17 40.43 70.66 47.5 87.39 43.5"></polygon><polygon class="cls-2" points="8.51 57.14 7.04 65.65 28.74 54.35 29.3 46.64 8.51 57.14"></polygon><polygon class="cls-2" points="96.58 86.5 94.56 75 70.66 47.5 71.32 57.22 71.32 57.22 96.58 86.5"></polygon><polygon class="cls-2" points="70.66 47.5 70.66 47.5 70.17 40.43 70.17 40.43 50.03 48.65 50.03 56.03 63.03 50.5 71.32 57.22 70.66 47.5 70.66 47.5"></polygon><polygon class="cls-3" points="50.01 87.43 27.04 77.42 30.27 33.58 50.04 41.66 50.01 87.43"></polygon><path class="cls-3" d="M95.33,87.49,72.68,77.18l-3-43.6L88.87,44.35a.91.91,0,0,1,.43.63l7.27,41.54a.88.88,0,0,1-.73,1A.89.89,0,0,1,95.33,87.49Z"></path><path class="cls-4" d="M65.66,28.32A15.87,15.87,0,1,0,37.31,38.1h0L48.07,53.65a2.35,2.35,0,0,0,3.27.59,2.4,2.4,0,0,0,.61-.62L62.29,38.1h0A15.78,15.78,0,0,0,65.66,28.32ZM50,32.58A5.63,5.63,0,1,1,55.66,27h0A5.63,5.63,0,0,1,50,32.58Z"></path></g></svg>