<svg transform="scale(1)" xmlns="http://www.w3.org/2000/svg" viewBox="0 0 100 100" class="show_show__wrapper__graphic__5Waiy "><title>React</title><defs><style>.cls-1{fill:#f2f2f2;}.cls-2{fill:#13183f;}.cls-2,.cls-4{opacity:0.15;}.cls-3{fill:#ffd44d;}.cls-4{fill:#f0457d;}</style></defs><g id="_0578_Money" data-name="0578_Money"><path class="cls-1" d="M82,36.94A15.48,15.48,0,0,0,69.34,19.09a15.94,15.94,0,0,0-2.67-.22,1,1,0,0,0-.24,0,23.63,23.63,0,0,0-44.54,11c0,.51,0,1,.08,1.51a15.55,15.55,0,0,0,5.3,30.17H74.94A13.34,13.34,0,0,0,82,36.94Z"></path><path class="cls-2" d="M81.8,36.94A15.48,15.48,0,0,0,69.16,19.09a16.42,16.42,0,0,0-2.71-.22,1,1,0,0,0-.24,0A23.6,23.6,0,0,0,45.32,6.28c-.83,0-1.65,0-2.47.12,6.93.84,12.83,5.68,15.94,12.49l.21,0c7.43,0,13.45,7,13.45,15.57a16.1,16.1,0,0,1-.19,2.5,13.9,13.9,0,0,1,5.43,11.32c0,7.37-5.17,13.35-11.54,13.35h8.57a13.35,13.35,0,0,0,7.07-24.67Z"></path><circle class="cls-3" cx="49.57" cy="60.86" r="32.86"></circle><circle class="cls-4" cx="49.57" cy="60.86" r="24.25"></circle><path class="cls-1" d="M49,72.34v-2a12,12,0,0,1-6.81-3l2-2.41A9.61,9.61,0,0,0,49,67.3V61.93a11.39,11.39,0,0,1-4.58-2,4.41,4.41,0,0,1-1.45-3.61,5,5,0,0,1,1.67-3.92A6.74,6.74,0,0,1,49,50.77V49.39h1.77V50.8a11.62,11.62,0,0,1,5.76,2.07l-1.8,2.55a9,9,0,0,0-4-1.61V59h.08a11.15,11.15,0,0,1,4.68,2,4.58,4.58,0,0,1,1.5,3.7,5,5,0,0,1-1.71,3.94,7.1,7.1,0,0,1-4.54,1.66v2ZM47,54.47a2.11,2.11,0,0,0-.15,3,5.51,5.51,0,0,0,2.1,1V53.73a3.32,3.32,0,0,0-2,.74ZM52.84,66.6a2.13,2.13,0,0,0,.27-3,.69.69,0,0,0-.11-.13,6.21,6.21,0,0,0-2.27-1.07v5a3.88,3.88,0,0,0,2.11-.79Z"></path></g></svg>