<svg transform="scale(1)" xmlns="http://www.w3.org/2000/svg" viewBox="0 0 100 100" class="show_show__wrapper__graphic__5Waiy "><title>React</title><defs><style>.cls-1{fill:#ffbeb3;}.cls-2{fill:#f0457d;opacity:0.15;}.cls-3{fill:#13183f;}</style></defs><g id="_0615_Piggy_Bank_1" data-name="0615_Piggy_Bank_1"><path class="cls-1" d="M94.19,42.58H89.74c-.6-6.94-4.4-13.21-10.28-18,1.05-3,2.71-8.19,1.89-9.28s-6.29,2.83-8.85,4.83a47.49,47.49,0,0,0-21.22-4.83C30,15.32,12.72,28.4,12.72,44.53c0,9.22,5.65,17.44,14.46,22.79l-2.35,7.44a7.64,7.64,0,0,0,5,9.59h0a7.64,7.64,0,0,0,9.6-5v0l2.08-6.58a51.16,51.16,0,0,0,18.83.14l2.09,6.63a7.65,7.65,0,0,0,9.59,5h0a7.65,7.65,0,0,0,5-9.6l-2.28-7.21a34,34,0,0,0,9.85-8.45h9.63A1.85,1.85,0,0,0,96,57.41v-13A1.85,1.85,0,0,0,94.19,42.58Z"></path><path class="cls-2" d="M75.23,58c-24.34,11.32-51.8-4.42-62.47-11.69.66,8.51,6.13,16,14.39,21.06L24.8,74.75a7.64,7.64,0,0,0,5,9.6h0a7.64,7.64,0,0,0,9.59-5l2.08-6.58a51.16,51.16,0,0,0,18.83.14l2.1,6.63a7.63,7.63,0,0,0,9.59,5h0a7.64,7.64,0,0,0,5-9.6h0l-2.28-7.21a34,34,0,0,0,9.86-8.45h9.62A1.86,1.86,0,0,0,96,57.43V54.49C77.23,53.44,75.23,58,75.23,58Z"></path><path class="cls-3" d="M51.73,56.35v-2.1a12.48,12.48,0,0,1-7.1-3.15l2.11-2.51a10,10,0,0,0,5,2.51V45.51a11.73,11.73,0,0,1-4.78-2,4.64,4.64,0,0,1-1.51-3.77,5.28,5.28,0,0,1,1.74-4.08,7,7,0,0,1,4.54-1.73V32.44h1.84v1.48a12.12,12.12,0,0,1,6,2.16l-1.87,2.66a9.31,9.31,0,0,0-4.13-1.68v5.42h.09a11.69,11.69,0,0,1,4.87,2.11,4.77,4.77,0,0,1,1.56,3.85,5.22,5.22,0,0,1-1.79,4.11,7.45,7.45,0,0,1-4.73,1.73v2.08Zm-2-18.61A2.07,2.07,0,0,0,49,39.35a2,2,0,0,0,.58,1.53A5.76,5.76,0,0,0,51.73,42V37a3.5,3.5,0,0,0-2,.77Zm6.07,12.64a2.23,2.23,0,0,0,.3-3.14l-.12-.13A6.21,6.21,0,0,0,53.57,46v5.19A4.06,4.06,0,0,0,55.76,50.38Z"></path><circle class="cls-3" cx="78.18" cy="38.59" r="1.85"></circle><path class="cls-3" d="M63.48,24.54a.87.87,0,0,1-.32-.06c-10.54-4.2-22.78,0-22.91,0a.85.85,0,0,1-.56-1.61c.53-.18,13-4.42,24.1,0a.85.85,0,0,1-.31,1.64Z"></path><path class="cls-1" d="M17.91,35.26h0c-.19,0-4.7-.2-7.19-2.93a2,2,0,0,1-.19-.22,5.82,5.82,0,0,1-2.86-.39A5.49,5.49,0,0,1,4,26a.86.86,0,0,1,1-.69.85.85,0,0,1,.69.95,3.81,3.81,0,0,0,2.57,3.87,4.33,4.33,0,0,0,1.24.3,6.8,6.8,0,0,1-.42-2.75c.17-3.3,1.9-4.16,2.64-4.38A3.06,3.06,0,0,1,15,24.49c1,1.36.82,3.22-.43,5a6.35,6.35,0,0,1-2.29,2.08c2.08,1.84,5.58,2,5.61,2a.85.85,0,1,1,0,1.7ZM12.55,24.89a2,2,0,0,0-.34.05c-.81.24-1.34,1.3-1.41,2.83a4.72,4.72,0,0,0,.44,2.4,4.57,4.57,0,0,0,2-1.66c.81-1.16,1-2.29.44-3a1.39,1.39,0,0,0-1.1-.6Z"></path></g></svg>